<svg enable-background="new 0 0 900 900" height="900" viewBox="0 0 900 900" width="900" xmlns="http://www.w3.org/2000/svg"><path d="m485.2 469.8c8.1-1.2 14.6-7.1 18.3-14.7 6.7-15.3 6.6-32.1 5.5-48.4-1.2-18.8-1.3-37.3-1.4-56.1-.1-18-1-35.9-2.9-53.8-.6-5.3.6-9.7-8.5-9-4.8.4-9.5-.4-14.3-.6-4.8-.1-9.5 0-14.3.1-20.5.5-40.6.3-61.1-.5-20.7-.8-55.8-3-67.5 19-1.3 2.4-2.2 4.9-2.7 7.6-.6-2.7-1.5-5.2-2.7-7.6-11.7-22-46.8-19.9-67.5-19-20.4.8-40.6 1-61.1.5-4.8-.1-9.5-.3-14.3-.1-4.7.1-9.5.9-14.3.6-9-.7-7.9 3.6-8.5 9-1.9 17.9-2.8 35.8-2.9 53.8-.1 18.8-.2 37.3-1.4 56.1-1.1 16.3-1.2 33.1 5.5 48.4 3.7 7.6 10.2 13.5 18.3 14.7-8.1 1.2-14.6 7.1-18.3 14.7-6.7 15.3-6.6 32.1-5.5 48.4 1.2 18.8 1.3 37.3 1.4 56.1.1 18 1 35.9 2.9 53.8.6 5.3-.6 9.7 8.5 9 4.8-.4 9.5.4 14.3.6 4.8.1 9.5 0 14.3-.2 20.5-.5 40.6-.3 61.1.5 20.7.8 55.8 3 67.5-19 1.3-2.4 2.2-4.9 2.7-7.6.6 2.7 1.5 5.2 2.7 7.6 11.7 22 46.8 19.9 67.5 19 20.4-.8 40.6-1 61.1-.5 4.8.1 9.5.3 14.3.2s9.5-.9 14.3-.6c9 .7 7.9-3.6 8.5-9 1.9-17.9 2.8-35.8 2.9-53.8.1-18.8.2-37.3 1.4-56.1 1.1-16.3 1.2-33.1-5.5-48.4-3.7-7.6-10.2-13.5-18.3-14.7zm19.6-61.3c-8.7-8.1-22.2-11.9-32.3-4.9.7-1.9 2.1-4.2 2.5-5.1.8-2.1 1.3-5.1 2.6-7 2-3.1 7-5.2 10.4-5.9 5.1-1.1 10.4.3 13.4 4.7.1.2.2.3.3.5 1.6 2.7 2.5 5.8 2.7 8.9.1 2.9.3 5.8.4 8.8zm-34.7-75c0 3.1-.8 6.2-2.4 8.8-.3.5-.6 1.1-.9 1.6-1.3-3.4-2.6-6.6-5.6-9.1-2.4-2-5.2-3.1-8.1-3.4 8.4-9.4 17.1-5.6 17 2.1zm3.7 6.6c.5-1 1.3-3.8 2.7-4.2 2.3-.7 5.1 1.9 6.2 3.7.3.5.5 1.1.6 1.7 1.1 4.6 1.2 9.4 0 13.9-.2.7-.3 1.3-.5 2-1.3-2.1-2.8-4-4.7-5.5-2.9-2.3-5.7-2.6-8.9-3.7 1.6-2.5 3.2-5.2 4.6-7.9zm-13.7-.3c3.3 3.9 4.5 7.7 2.1 12.1-1.8 3.3-3.8 6.5-5.8 9.7-1.3-3.9-2.3-7.3-5.6-10.6-3.2-3.2-7.1-5.2-11.4-5.6 2.5-2.6 5-5.4 7.7-7.7 4.3-3.7 9.6-1.9 13 2.1zm4.1 16.9c1.6-2.8 2.5-5.2 6.2-4.2 5.6 1.5 9.2 6.2 10.8 11.5-1.4 5.7-2.9 11.3-4.6 16.9-2.7-7.8-8.3-15.5-16.7-17.1 1.4-2.3 2.8-4.7 4.3-7.1zm18.2 18.6c1.6-6 7.2-10.3 13.4-9.8 3.9.3 7.3 2.3 7.3 8.6 0 3.8.1 7.7.3 11.5 0 .3 0 .7.1 1-6.1-6.8-15.9-6.6-23.8-2 .9-3.1 1.8-6.2 2.7-9.3zm-4.7-43.3c.4-.9.9-1.9 1.3-2.8.8-1.9 2.4-3.4 4.4-4 1.1-.3 2.2-.3 3.3.5s2.3 1.5.9 9.4c-.1.7-.2 2.9-.5 4.6-1.6-4.1-4.9-7.1-9.4-7.7zm4.9-11.1c1.8-4.2 3.7-8.5 5.8-12.6.6.2 1.2.5 1.7.8 2.4 2.3 1.3 4.1.7 7.1-.4 2.1-.8 4.2-1.2 6.4-1.9-1.6-4.4-2.2-7-1.7zm-3.7-2.5c-1.9-2.7-4.9-4-8.3-4.1.7-.7 1.6-1.4 1.9-1.7 1-1 1.9-2 2.9-3.1 1.9-2 3.9-4 5.9-5.9 1.3.6 2.2 1.7 3.2 2.7-2.1 3.9-3.9 8-5.6 12.1zm-3 2.9c1.2 2.3-.2 4.8-1.1 6.9-.1.3-.4 1.2-.8 2.1-1.1-5.1-5.3-8.3-10.5-8.5 7.7-7.2 11.9-1.6 12.4-.5zm-11.1-6.6c-1.3 2.1-3.7 4-5.8 5.7-1.3-4.9-3.7-9.7-8.1-12.1 1.5-.5 3.1-1 4.5-1.2 1.9-.3 4.4-.8 6.3-.1 3.1 1.1 4.9 4.8 3.1 7.7zm-11.8 1.1c1.4 2.3 3.1 6 1.8 8.5-1.1 2-3.6 3.9-5.7 5.7-.2-7.5-4.7-14.6-11.8-16.8 5.7-2.2 11.9-3.7 15.7 2.6zm-12 4.3c3.1 3.2 4.5 8 3.8 12.3-.6 3.8-4.9 7.1-8 9.9-2-9.6-6.7-18.6-16.1-22.2 6.4-3.1 14.6-5.9 20.3 0zm-12 12.2c1.9 3.2 5.4 10.4 3.4 14.2-1 1.9-3.9 3.8-5.5 5.2-1.7 1.6-3.5 3.1-5.3 4.5.3-11.1-5.6-21.9-13.9-29.1 2.1-1.5 4.6-3.4 6.7-3.9 1.5-.4 1.6-.3 3.6.2 4.8 1.4 8.5 4.7 11 8.9zm.3 22.8c1.7-1.6 3.6-4.1 5.7-5.2 4.2-2.2 9.9.8 12.9 3.9 2.6 2.7 6.4 8.5 5.7 12.5-.4 2.2-2.8 4.9-3.9 6.8-1 1.6-1.9 3.3-2.9 4.9-2.8-10.2-11.4-17.3-21.8-19 1.4-1.3 2.8-2.6 4.3-3.9zm27 14.8c3.7-4 9.2.8 11.9 4.1 2.7 3.4 4.5 7.5 5.4 11.7.9 4.6-1.6 9.8-3.6 14.2-4.1-8.9-11.5-15.5-21.4-16.8 2.3-4.4 4.5-9.8 7.7-13.2zm47-4.8c-2.8-2.4-6.2-4.3-9.9-4.7s-5.4.9-8 2.3c.3-3 2-7 2.7-9.5.6-2.3.8-8.3 3.6-9 3.4-.8 7.4 3.4 9.4 5.7 3.4 4.1 2.6 9.9 2.2 15.2zm-.1-27.5v.2c.4 1.6.1 3.9.1 5.6v3c-3.4-3.6-7.6-6.6-12.7-6.2.3-3.4.6-9.2 3.5-9.9 4.4-1 8.6 3.2 9.1 7.3zm-.3-8.5c-2.8-2.4-6.2-3.6-9.8-2.7.6-3.3 1.1-6.6 1.8-9.9 1.9-9.2 7.1-1.4 7.2-1.3.3 4.6.5 9.3.8 13.9zm-2.4-31.2c.4 3.7.7 7.3 1 11-.5-.3-1-.5-1.5-.6-1-.2-2.1.1-3.2.1 1.1-3.5 2.3-7.1 3.7-10.5zm-4.9-.8c.3-.4.8-.8 1.3-1.2-1.5 3.4-2.7 7-3.7 10.6-.8-.7-1.7-1.3-2.7-1.8 1.5-2.7 3.1-5.3 5.1-7.6zm-8.9 5.2c-.7-.6-1.3-1.3-2-1.9 2.1-1.8 4.3-3.7 6.6-5.2-1.9 2.6-3.6 5.4-4.6 7.1zm-.9-8.5c.9-.5 2.3-1.7 3.3-1.9h.1c-1.2.8-2.5 1.7-3.7 2.6-1.1.8-2.2 1.7-3.2 2.6-.5.5-1 .9-1.6 1.4-.9-.1-1.7-.4-2.2-1 2.5-1.2 4.9-2.4 7.3-3.7zm-6.9-2.3c.7 0 1.4 0 2.1.1-1.4.8-2.9 1.5-4.4 2.2-.3-.8-.8-1.5-1.3-2.2 1.3-.1 2.4-.1 3.6-.1zm-1.8 10.4c-2.7 2.7-5.3 5.4-7.8 8.1-.8-2.9-2.6-5.2-5.3-6.5 3.3-1.3 6.6-2.6 9.9-4 .9 1 2 1.8 3.2 2.4zm-14-10.1c1.5 0 5.4-.7 6.6-.1s2.6 3.2 2 4.3c-.4.8-3.9 1.7-4.8 2-2 .8-4 1.5-6 2.3.4-3.3-.8-6.2-3.2-8.4 1.9 0 3.7-.1 5.4-.1zm-19.9.3c1.2 0 10.6.9 12.7 3.7 1 1.3 1.3 2.8 1 4.4-.4 1.7-1.4 2-2.9 2.7-1.9.8-4 1.5-6 2.1.9-5.1-1.1-10-5.2-12.9zm-14.6-.1c5 .1 9.9 2 13.5 5.5 2.9 2.8 4.5 6.4-.2 9.6-2.5 1.7-6.4 2.5-9.5 3.5.1-6.6-2-13.9-6.6-18.8.9.1 1.9.2 2.8.2zm-15.2-.6c14.5.3 16.7 19 13.6 21.4-1.9 1.5-4.9 2.4-7.5 3.3.6-9.8-4.7-19.8-13-25.1 2.3.2 4.6.3 6.9.4zm-22.8-.9c3.4 0 6.7.7 9.8 2 4.3 1.9 7.7 4.4 10.5 8.3 2.6 3.6 4.5 8 4.8 12.5.2 3.4-.6 4.6-3.5 6.4-1.5.9-3.1 1.8-4.7 2.7 1.6-12.3-8.4-25.6-19-31.9zm-118.3 2c3.1-1.3 6.4-2 9.8-2h2.1c-10.6 6.3-20.6 19.6-19 31.9-1.6-.9-3.1-1.8-4.7-2.7-2.9-1.8-3.6-3-3.5-6.4.2-4.5 2.2-8.9 4.8-12.5 2.8-3.8 6.2-6.4 10.5-8.3zm-69.8 41c-.1-7.8 8.6-11.5 17.1-2-3 .3-5.7 1.4-8.1 3.4-3.1 2.5-4.3 5.6-5.6 9.1-.3-.5-.6-1.1-.9-1.6-1.7-2.7-2.5-5.8-2.5-8.9zm.9 14.6c-3.2 1-5.9 1.3-8.9 3.7-1.9 1.5-3.5 3.4-4.7 5.5-.2-.7-.3-1.3-.5-2-1.1-4.6-1.1-9.4 0-13.9.2-.7.4-1.3.6-1.7 1.1-1.8 3.9-4.4 6.2-3.7 1.4.4 2.1 3.1 2.7 4.2 1.5 2.6 3 5.3 4.6 7.9zm9.2-8.3c3.3-4 8.6-5.8 13-2.1 2.7 2.3 5.2 5.1 7.7 7.7-4.4.5-8.2 2.4-11.4 5.6-3.3 3.3-4.3 6.7-5.6 10.6-2-3.2-4-6.4-5.8-9.7-2.5-4.5-1.2-8.3 2.1-12.1zm15.2-7.5c-.7-4.3.7-9.1 3.8-12.3 5.7-5.9 13.9-3 20.3 0-9.4 3.6-14.1 12.6-16.1 22.2-3.1-2.8-7.3-6.1-8-9.9zm-4.2-2.4c-2.1-1.8-4.6-3.7-5.7-5.7-1.3-2.4.5-6.1 1.8-8.5 3.7-6.3 10-4.8 15.7-2.7-7.2 2.3-11.6 9.5-11.8 16.9zm-10-9.5c-2.1-1.7-4.5-3.6-5.8-5.7-1.8-2.8 0-6.6 3.1-7.7 1.9-.7 4.4-.2 6.3.1 1.4.2 2.9.7 4.5 1.2-4.4 2.3-6.8 7.2-8.1 12.1zm-4.5 1.5c-5.2.2-9.4 3.4-10.5 8.5-.3-.9-.6-1.8-.8-2.1-.9-2.2-2.3-4.6-1.1-6.9.6-1.2 4.8-6.8 12.4.5zm-15.4-3.5c-1.7-4.1-3.5-8.1-5.6-12 1-1 1.9-2.1 3.2-2.7 2 1.9 3.9 3.9 5.9 5.9 1 1 1.9 2 2.9 3.1.3.3 1.2 1 1.9 1.7-3.4-.1-6.4 1.2-8.3 4zm-3.7 2.5c-2.6-.5-5 0-7.1 1.7-.4-2.1-.7-4.2-1.2-6.4-.6-3-1.6-4.8.7-7.1.5-.4 1.1-.6 1.7-.8 2.2 4.2 4 8.4 5.9 12.6zm-4.1 4.8c1.1-.8 2.2-.8 3.3-.5 2 .6 3.5 2.1 4.4 4 .4.9.9 1.9 1.3 2.8-4.5.6-7.7 3.6-9.4 7.7-.3-1.7-.4-3.9-.5-4.6-1.3-7.9-.1-8.6.9-9.4zm4.4 49.6c.9 3.1 1.7 6.2 2.7 9.3-7.9-4.6-17.7-4.9-23.8 2 0-.3 0-.7.1-1 .2-3.8.3-7.7.3-11.5 0-6.3 3.4-8.3 7.3-8.6 6.1-.5 11.7 3.8 13.4 9.8zm1.2-11.2c1.6-5.4 5.2-10 10.8-11.5 3.6-1 4.5 1.4 6.2 4.2 1.4 2.4 2.9 4.8 4.3 7.2-8.3 1.5-14 9.3-16.7 17.1-1.7-5.7-3.2-11.4-4.6-17zm7.6 21.6c.9-4.2 2.7-8.3 5.4-11.7 2.7-3.3 8.2-8.1 11.9-4.1 3.2 3.4 5.5 8.8 7.8 13.2-9.9 1.3-17.3 7.9-21.4 16.8-2.2-4.4-4.7-9.6-3.7-14.2zm24-12.6c-1.1-1.9-3.5-4.6-3.9-6.8-.8-4 3-9.9 5.7-12.5 3-3.1 8.7-6 12.9-3.9 2.1 1.1 4 3.6 5.7 5.2 1.4 1.3 2.9 2.6 4.3 3.9-10.3 1.7-19 8.8-21.8 19-1-1.6-2-3.2-2.9-4.9zm22.6-21.4c-1.6-1.5-4.5-3.3-5.5-5.2-1.9-3.8 1.5-10.9 3.4-14.2 2.5-4.2 6.2-7.5 11-8.9 1.9-.5 2.1-.6 3.6-.2 2.2.5 4.7 2.4 6.7 3.9-8.3 7.2-14.2 18-13.9 29.1-1.7-1.4-3.5-2.9-5.3-4.5zm13.5-60.3c2.3 0 4.6-.2 6.9-.3-8.3 5.3-13.6 15.2-13 25.1-2.5-1-5.5-1.8-7.5-3.3-3.1-2.6-.9-21.2 13.6-21.5zm-15.2.6c.9 0 1.9-.1 2.8-.1-4.6 4.9-6.7 12.2-6.6 18.8-3.1-1-7-1.8-9.5-3.5-4.8-3.2-3.1-6.7-.2-9.6 3.6-3.6 8.5-5.5 13.5-5.6zm-27.2 3.8c2.1-2.8 11.5-3.7 12.7-3.7h.5c-4 2.9-6.1 7.8-5.2 12.9-2-.7-4.1-1.3-6-2.1-1.5-.7-2.6-.9-2.9-2.7-.4-1.6-.1-3.1.9-4.4zm-13.9-4.1c1.2-.6 5.1 0 6.6.1 1.8 0 3.6.1 5.3.1-2.4 2.2-3.6 5.1-3.2 8.4-2-.8-4-1.5-6-2.3-.9-.3-4.3-1.2-4.8-2-.5-1.1 1-3.7 2.1-4.3zm-4.2 7.8c3.3 1.4 6.6 2.7 9.9 4-2.7 1.3-4.5 3.6-5.3 6.5-2.6-2.8-5.2-5.5-7.8-8.1 1.2-.6 2.3-1.4 3.2-2.4zm-5-8c1.2 0 2.3 0 3.5.1-.5.7-.9 1.4-1.3 2.2-1.5-.7-2.9-1.4-4.4-2.2.8-.1 1.5-.1 2.2-.1zm-10.1.4c1 .2 2.4 1.4 3.3 1.9 2.4 1.3 4.8 2.5 7.3 3.7-.6.6-1.3.9-2.2 1-.5-.5-1-.9-1.6-1.4-1.1-.9-2.1-1.8-3.2-2.6-1.2-.9-2.4-1.8-3.7-2.6 0 0 0-.1.1 0zm4.3 8.5c-.7.6-1.3 1.3-2 1.9-1-1.7-2.7-4.6-4.6-7.1 2.4 1.6 4.6 3.4 6.6 5.2zm-10.9-3.3c2 2.3 3.6 4.9 5.1 7.5-1 .5-1.9 1.1-2.7 1.8-1-3.6-2.2-7.1-3.7-10.6.5.5 1 .9 1.3 1.3zm-4.9.8c1.5 3.4 2.7 6.9 3.7 10.5-1 0-2.1-.4-3.2-.1-.6.1-1.1.4-1.5.6.3-3.6.6-7.3 1-11zm-1.5 17.3c.1-.1 5.2-7.9 7.2 1.3.7 3.3 1.3 6.6 1.8 9.9-3.6-.8-7 .3-9.8 2.7.2-4.6.4-9.3.8-13.9zm-1.2 22.6c0-.1 0-.1 0-.2 0 0 0 0 0-.1.5-4 4.6-8.3 9-7.2 2.8.7 3.1 6.5 3.5 9.9-5.1-.3-9.3 2.6-12.7 6.2 0-1 0-2 0-3 .1-1.7-.2-4 .2-5.6zm2.2 12.1c2-2.3 6-6.4 9.4-5.7 2.8.7 3.1 6.7 3.6 9 .6 2.5 2.3 6.4 2.7 9.5-2.6-1.4-4.2-2.7-8-2.3s-7.1 2.3-9.9 4.7c-.4-5.3-1.3-11.1 2.2-15.2zm-3.3 49.8c.2-3.1 1.1-6.2 2.7-8.9.1-.2.2-.3.3-.5 3-4.4 8.3-5.8 13.4-4.7 3.5.7 8.4 2.8 10.4 5.9 1.3 1.9 1.7 4.9 2.6 7 .4 1 1.7 3.3 2.5 5.1-10.2-7-23.6-3.3-32.3 4.9.1-3 .2-5.9.4-8.8zm-.5 131.4c8.7 8.1 22.2 11.9 32.3 4.9-.7 1.9-2.1 4.2-2.5 5.1-.9 2.1-1.3 5.1-2.6 7-2 3.1-7 5.2-10.4 5.9-5.1 1.1-10.4-.3-13.4-4.7-.1-.2-.2-.3-.3-.5-1.6-2.7-2.5-5.8-2.7-8.9-.1-2.9-.2-5.8-.4-8.8zm34.7 74.9c0-3.1.8-6.2 2.4-8.8.3-.5.6-1.1.9-1.6 1.3 3.4 2.6 6.6 5.6 9.1 2.4 2 5.2 3.1 8.1 3.4-8.4 9.5-17.1 5.7-17-2.1 0 .1 0 .1 0 0zm-3.6-6.5c-.5 1-1.3 3.8-2.7 4.2-2.3.7-5.1-1.9-6.2-3.7-.3-.5-.5-1.1-.6-1.7-1.1-4.6-1.2-9.4 0-13.9.2-.7.3-1.3.5-2 1.3 2.1 2.8 4 4.7 5.5 2.9 2.3 5.7 2.6 8.9 3.7-1.7 2.5-3.2 5.2-4.6 7.9zm13.7.3c-3.3-3.9-4.5-7.7-2.1-12.1 1.8-3.3 3.8-6.5 5.8-9.7 1.3 3.9 2.3 7.3 5.6 10.6 3.2 3.2 7.1 5.2 11.4 5.6-2.5 2.6-5 5.4-7.7 7.7-4.4 3.7-9.7 1.9-13-2.1zm-4.1-16.9c-1.6 2.8-2.5 5.2-6.2 4.2-5.6-1.5-9.2-6.2-10.8-11.5 1.4-5.7 2.9-11.3 4.6-16.9 2.7 7.8 8.3 15.5 16.7 17.1-1.5 2.3-2.9 4.7-4.3 7.1zm-18.2-18.6c-1.6 6-7.2 10.3-13.4 9.8-3.9-.3-7.3-2.3-7.3-8.6 0-3.8-.1-7.7-.3-11.5 0-.3 0-.7-.1-1 6.1 6.8 15.9 6.6 23.8 2-1 3.1-1.9 6.2-2.7 9.3zm4.6 43.3c-.4.9-.9 1.9-1.3 2.8-.8 1.9-2.4 3.4-4.4 4-1.1.3-2.2.3-3.3-.5s-2.3-1.5-.9-9.4c.1-.7.2-2.9.5-4.6 1.7 4.1 4.9 7.1 9.4 7.7zm-4.9 11c-1.8 4.2-3.7 8.5-5.8 12.6-.6-.2-1.2-.5-1.7-.8-2.4-2.3-1.3-4.1-.7-7.1.4-2.1.8-4.2 1.2-6.4 1.9 1.7 4.4 2.2 7 1.7zm3.7 2.6c1.9 2.7 4.9 4 8.2 4.1-.7.7-1.6 1.4-1.9 1.7-1 1-1.9 2-2.9 3.1-1.9 2-3.9 4-5.9 5.9-1.3-.6-2.2-1.7-3.2-2.7 2.2-4 4-8 5.7-12.1zm3-2.9c-1.2-2.3.2-4.8 1.1-6.9.1-.3.4-1.2.8-2.1 1.1 5.1 5.3 8.3 10.5 8.5-7.6 7.2-11.8 1.5-12.4.5zm11.1 6.6c1.3-2.1 3.7-4 5.8-5.7 1.3 4.9 3.7 9.7 8.1 12.1-1.5.5-3.1 1-4.5 1.2-1.9.3-4.4.8-6.3.1-3.1-1.1-4.9-4.8-3.1-7.7zm11.9-1.1c-1.4-2.3-3.1-6-1.8-8.4 1.1-2 3.6-3.9 5.7-5.7.2 7.5 4.7 14.6 11.8 16.8-5.8 2.1-12 3.6-15.7-2.7zm11.9-4.3c-3.1-3.2-4.5-8-3.8-12.3.6-3.8 4.9-7.1 8-9.9 2 9.6 6.7 18.6 16.1 22.2-6.4 3-14.6 5.9-20.3 0zm12.1-12.2c-1.9-3.2-5.4-10.4-3.4-14.2 1-1.9 3.9-3.8 5.5-5.2 1.7-1.6 3.5-3.1 5.3-4.5-.3 11.1 5.6 21.9 13.9 29.1-2.1 1.5-4.6 3.4-6.7 3.9-1.5.4-1.6.3-3.6-.2-4.8-1.4-8.5-4.7-11-8.9zm-.3-22.8c-1.7 1.6-3.6 4.1-5.7 5.2-4.2 2.2-9.9-.8-12.9-3.9-2.6-2.7-6.4-8.5-5.7-12.5.4-2.2 2.8-4.9 3.9-6.8 1-1.6 1.9-3.3 2.9-4.9 2.8 10.2 11.4 17.3 21.8 19-1.5 1.2-2.9 2.6-4.3 3.9zm-27.1-14.8c-3.7 4-9.2-.8-11.9-4.1-2.7-3.4-4.5-7.5-5.4-11.7-.9-4.6 1.6-9.8 3.6-14.2 4.1 8.9 11.5 15.5 21.4 16.8-2.2 4.4-4.5 9.8-7.7 13.2zm-47 4.8c2.8 2.4 6.2 4.3 9.9 4.7s5.4-.9 8-2.3c-.3 3-2 7-2.7 9.5-.6 2.3-.8 8.3-3.6 9-3.4.8-7.4-3.4-9.4-5.7-3.4-4.1-2.5-9.9-2.2-15.2zm.1 27.5c0-.1 0-.1 0-.2-.4-1.6-.1-3.9-.1-5.6 0-1 0-2 0-3 3.4 3.6 7.6 6.6 12.7 6.2-.3 3.4-.6 9.2-3.5 9.9-4.4 1-8.5-3.2-9.1-7.3.1 0 .1 0 0 0zm.4 8.5c2.8 2.4 6.2 3.6 9.8 2.7-.6 3.3-1.1 6.6-1.8 9.9-1.9 9.2-7.1 1.4-7.2 1.3-.4-4.7-.6-9.3-.8-13.9zm2.3 31.2c-.4-3.7-.7-7.3-1-11 .5.3 1 .5 1.5.6 1 .2 2.1-.1 3.2-.1-1.1 3.5-2.3 7.1-3.7 10.5zm4.9.8c-.3.4-.8.8-1.3 1.2 1.5-3.4 2.7-7 3.7-10.6.8.7 1.7 1.3 2.7 1.8-1.5 2.7-3.1 5.3-5.1 7.6zm8.9-5.2c.7.6 1.3 1.3 2 1.9-2.1 1.8-4.3 3.7-6.6 5.2 1.9-2.6 3.6-5.4 4.6-7.1zm.9 8.5c-.9.5-2.3 1.7-3.3 1.9h-.1c1.2-.8 2.5-1.7 3.7-2.6 1.1-.8 2.2-1.7 3.2-2.6.5-.5 1-.9 1.6-1.4.9.1 1.7.4 2.2 1-2.4 1.2-4.9 2.4-7.3 3.7zm6.9 2.3c-.7 0-1.4 0-2.1-.1 1.4-.8 2.9-1.5 4.4-2.2.3.8.8 1.5 1.3 2.2-1.2.1-2.4.1-3.6.1zm1.8-10.4c2.7-2.7 5.3-5.4 7.8-8.2.9 2.9 2.6 5.2 5.3 6.5-3.3 1.3-6.6 2.6-9.9 4-.9-.9-2-1.7-3.2-2.3zm14 10.1c-1.5 0-5.4.7-6.6.1s-2.6-3.2-2-4.3c.4-.8 3.9-1.7 4.8-2 2-.8 4-1.5 6-2.3-.4 3.3.8 6.2 3.2 8.4-1.8 0-3.6.1-5.4.1zm19.9-.3c-1.2 0-10.6-.9-12.7-3.7-1-1.3-1.3-2.8-1-4.4.4-1.7 1.4-2 2.9-2.7 1.9-.8 4-1.5 6-2.1-.9 5.1 1.1 10 5.2 12.9 0 0-.2 0-.4 0zm14.6.1c-5-.1-9.9-2-13.5-5.5-2.9-2.8-4.5-6.4.2-9.6 2.5-1.7 6.4-2.5 9.5-3.5-.1 6.6 2 13.9 6.6 18.8-.9-.2-1.8-.2-2.8-.2zm15.2.6c-14.5-.3-16.7-19-13.6-21.4 1.9-1.5 4.9-2.4 7.5-3.3-.6 9.8 4.7 19.8 13 25.1-2.3-.2-4.6-.3-6.9-.4zm22.9.9c-3.4 0-6.7-.7-9.8-2-4.3-1.9-7.7-4.4-10.5-8.3-2.6-3.6-4.5-8-4.8-12.5-.2-3.4.6-4.6 3.5-6.4 1.5-.9 3.1-1.8 4.7-2.7-1.6 12.3 8.4 25.6 19 31.9-.7 0-1.4 0-2.1 0zm118.2-2c-3.1 1.3-6.4 2-9.8 2-.7 0-1.4 0-2.1 0 10.6-6.3 20.6-19.6 19-31.9 1.6.9 3.1 1.8 4.7 2.7 2.9 1.8 3.6 3 3.5 6.4-.2 4.5-2.2 8.9-4.8 12.5-2.7 3.8-6.2 6.4-10.5 8.3zm69.8-41.1c0 .1 0 .1 0 0 .1 7.8-8.6 11.5-17.1 2 3-.3 5.7-1.4 8.1-3.4 3.1-2.5 4.3-5.6 5.6-9.1.3.5.6 1.1.9 1.6 1.7 2.8 2.5 5.8 2.5 8.9zm-.9-14.5c3.2-1 5.9-1.3 8.9-3.7 1.9-1.5 3.5-3.4 4.7-5.5.2.7.3 1.3.5 2 1.1 4.6 1.1 9.4 0 13.9-.2.7-.3 1.3-.6 1.7-1.1 1.8-3.9 4.4-6.2 3.7-1.4-.4-2.1-3.1-2.7-4.2-1.4-2.6-3-5.3-4.6-7.9zm-9.1 8.3c-3.3 4-8.6 5.8-13 2.1-2.7-2.3-5.2-5.1-7.7-7.7 4.4-.5 8.2-2.4 11.4-5.6 3.3-3.3 4.3-6.7 5.6-10.6 2 3.2 4 6.4 5.8 9.7 2.4 4.5 1.2 8.2-2.1 12.1zm-15.3 7.4c.7 4.3-.7 9.1-3.8 12.3-5.7 5.9-13.9 3-20.3 0 9.4-3.6 14.1-12.6 16.1-22.2 3.1 2.8 7.4 6.2 8 9.9zm4.3 2.5c2.1 1.8 4.6 3.7 5.7 5.7 1.3 2.4-.5 6.1-1.8 8.4-3.7 6.3-10 4.8-15.7 2.7 7.1-2.2 11.6-9.4 11.8-16.8zm9.9 9.5c2.1 1.7 4.5 3.6 5.8 5.7 1.8 2.8 0 6.6-3.1 7.7-1.9.7-4.4.2-6.3-.1-1.4-.2-2.9-.7-4.5-1.2 4.5-2.3 6.8-7.2 8.1-12.1zm4.5-1.5c5.2-.2 9.4-3.4 10.5-8.5.3.9.6 1.8.8 2.1.9 2.2 2.3 4.6 1.1 6.9-.5 1.1-4.7 6.8-12.4-.5zm15.4 3.5c1.7 4.1 3.5 8.1 5.6 12-1 1-1.9 2.1-3.2 2.7-2-1.9-3.9-3.9-5.9-5.9-1-1-1.9-2-2.9-3.1-.3-.3-1.2-1-1.9-1.7 3.4.1 6.4-1.3 8.3-4zm3.7-2.6c2.6.5 5 0 7.1-1.7.4 2.1.7 4.2 1.2 6.4.6 3 1.6 4.8-.7 7.1-.5.3-1.1.6-1.7.8-2.1-4.1-4-8.3-5.9-12.6zm4.1-4.7c-1.1.8-2.2.8-3.3.5-2-.6-3.5-2.1-4.4-4-.4-.9-.8-1.9-1.3-2.8 4.5-.6 7.7-3.6 9.4-7.7.3 1.7.4 3.9.5 4.6 1.4 7.9.2 8.6-.9 9.4zm-4.3-49.6c-.9-3.1-1.7-6.2-2.7-9.3 7.9 4.6 17.7 4.9 23.8-2 0 .3 0 .7-.1 1-.2 3.8-.3 7.7-.3 11.5 0 6.3-3.4 8.3-7.3 8.6-6.2.5-11.8-3.8-13.4-9.8zm-1.3 11.2c-1.6 5.4-5.2 10-10.8 11.5-3.6 1-4.5-1.4-6.2-4.2-1.4-2.4-2.9-4.8-4.3-7.2 8.3-1.5 14-9.3 16.7-17.1 1.7 5.7 3.2 11.4 4.6 17zm-7.5-21.6c-.9 4.2-2.7 8.3-5.4 11.7-2.7 3.3-8.2 8.1-11.9 4.1-3.2-3.4-5.5-8.8-7.8-13.2 9.9-1.3 17.3-7.9 21.4-16.8 2.1 4.4 4.6 9.6 3.7 14.2zm-24 12.6c1.1 1.9 3.5 4.6 3.9 6.8.8 4-3 9.9-5.7 12.5-3 3.1-8.7 6-12.9 3.9-2.1-1.1-4-3.6-5.7-5.2-1.4-1.3-2.9-2.6-4.3-3.9 10.3-1.7 19-8.8 21.8-19 1 1.6 1.9 3.2 2.9 4.9zm-22.7 21.4c1.6 1.5 4.5 3.3 5.5 5.2 1.9 3.8-1.5 10.9-3.4 14.2-2.5 4.2-6.2 7.5-11 8.9-1.9.5-2.1.6-3.6.2-2.2-.5-4.7-2.4-6.7-3.9 8.3-7.2 14.2-18 13.9-29.1 1.8 1.4 3.6 2.9 5.3 4.5zm-13.5 60.3c-2.3 0-4.6.2-6.9.3 8.3-5.3 13.6-15.2 13-25.1 2.5 1 5.5 1.8 7.5 3.3 3.1 2.6.9 21.2-13.6 21.5zm15.2-.6c-.9 0-1.9.1-2.8.1 4.6-4.9 6.7-12.2 6.6-18.8 3.1 1 7 1.8 9.5 3.5 4.8 3.2 3.1 6.7.2 9.6-3.6 3.6-8.5 5.4-13.5 5.6zm27.2-3.8c-2.1 2.8-11.5 3.7-12.7 3.7-.2 0-.3 0-.5 0 4-2.9 6.1-7.8 5.2-12.9 2 .7 4.1 1.3 6 2.1 1.5.7 2.6.9 2.9 2.7.5 1.6.1 3.1-.9 4.4zm13.9 4.1c-1.2.6-5.1 0-6.6-.1-1.8 0-3.6-.1-5.3-.1 2.4-2.2 3.6-5.1 3.2-8.4 2 .8 4 1.5 6 2.3.9.3 4.3 1.2 4.8 2 .6 1.1-.9 3.7-2.1 4.3zm4.2-7.8c-3.3-1.4-6.6-2.7-9.9-4 2.7-1.3 4.5-3.6 5.3-6.5 2.6 2.8 5.2 5.5 7.8 8.2-1.2.5-2.3 1.3-3.2 2.3zm5 8c-1.2 0-2.3 0-3.5-.1.5-.7.9-1.4 1.3-2.2 1.5.7 2.9 1.4 4.4 2.2-.8.1-1.5.1-2.2.1zm10.2-.4c-1-.2-2.4-1.4-3.3-1.9-2.4-1.3-4.8-2.5-7.3-3.7.6-.6 1.3-.9 2.2-1 .5.5 1 .9 1.6 1.4 1 .9 2.1 1.8 3.2 2.6 1.2.9 2.4 1.8 3.7 2.6-.1 0-.1 0-.1 0zm-4.4-8.5c.7-.6 1.3-1.3 2-1.9 1 1.7 2.7 4.6 4.6 7.1-2.3-1.6-4.5-3.4-6.6-5.2zm10.9 3.3c-2-2.3-3.6-4.9-5.1-7.5 1-.5 1.9-1.1 2.7-1.8 1 3.6 2.2 7.1 3.7 10.6-.5-.5-1-.9-1.3-1.3zm4.9-.8c-1.5-3.4-2.7-6.9-3.7-10.5 1 0 2.1.4 3.2.1.6-.1 1.1-.3 1.5-.6-.2 3.6-.6 7.3-1 11zm1.6-17.3c-.1.1-5.2 7.9-7.2-1.3-.7-3.3-1.3-6.6-1.8-9.9 3.6.8 7-.3 9.8-2.7-.3 4.6-.5 9.2-.8 13.9zm1.1-22.6v.2.1c-.5 4-4.6 8.3-9 7.2-2.9-.7-3.1-6.5-3.5-9.9 5.1.3 9.3-2.6 12.7-6.2v3c-.1 1.7.2 3.9-.2 5.6zm-2.2-12.2c-2 2.3-6 6.4-9.4 5.7-2.8-.7-3.1-6.7-3.6-9-.6-2.5-2.3-6.4-2.7-9.5 2.6 1.4 4.2 2.7 8 2.3s7.1-2.3 9.9-4.7c.5 5.4 1.3 11.2-2.2 15.2zm3.3-49.7c-.2 3.1-1.1 6.2-2.7 8.9-.1.2-.2.3-.3.5-3 4.4-8.3 5.8-13.4 4.7-3.5-.7-8.4-2.8-10.4-5.9-1.3-1.9-1.7-4.9-2.6-7-.4-1-1.7-3.3-2.5-5.1 10.2 7 23.6 3.2 32.3-4.9 0 3-.2 5.9-.4 8.8zm.8-22.4c0 1.9.7 5.2.2 6.9-.7 2.6-5.2 5.7-7.3 7-21.1 13.9-31.3-10.9-33-2.7-.2.8.4 1.5.6 2.2 1 2.6 1.7 3.7.9 6.4-1.5 5.2-6.1 10.3-10.7 12.9-1.8 1-6 2.9-8.2 2.5-1.7-.3-2.7-2.5-3.8-4.3-1.3-2.1-4.7-3.6-4.5.2.1 1.2 1.1 2.2 1.6 3.2 1.5 2.6 2.6 4.8 2 7.8-.9 4.3-3.3 8.3-6.5 11.2-2.9 2.7-6.6 4.6-10.5 5.4-2.4.5-4.5.5-6.9.2-1.2-.2-2.8-.9-4-.5-4 1.5.3 3.9 1.3 5.2 2.4 3 .5 8.9-.6 12.3-1.5 4.3-3.9 8.4-6.8 11.9-1.1 1.3-2.2 2.5-3.5 3.6s-1.4.5-2.5 1c-1 .4-1.9.7-1.9 2.1 0 .8.9 1.5 1 1.7 2.8 5.4 1.3 11.2-1.5 16.3-3.8 6.9-10.5 15-18.2 17.5-8.3 2.7-19.9-1-27.6-4.7-14-6.6-17.2-22.1-13-36 4.7-15.3 20.8-33.4 38.2-24.5 7.8 4 12.9 12.2 12.4 21-.6 8.3-6.9 16.3-15.7 16.6-4.9.1-9.4-2.7-11.6-7-1.1-2.1-1.7-4.7-.7-7 1.5-3.4 3.8-2.2 6.1-3.7 2-1.3 1.9-3.6-.7-4-4.6-.7-9.1 4.1-9.8 8.2-1 5.1 1.9 10.5 5.7 13.7 8.8 7.4 22.1 3.2 28-5.8 12.3-19-10.1-43.3-30.2-37.5-13.7 3.9-24.1 18.5-27 33.5-2.9-15-13.4-29.5-27-33.5-20.1-5.8-42.6 18.5-30.2 37.5 5.9 9.1 19.1 13.2 28 5.8 3.9-3.2 6.7-8.6 5.7-13.7-.8-4.1-5.2-8.8-9.8-8.2-2.6.4-2.6 2.7-.7 4 2.3 1.5 4.5.3 6.1 3.7 1 2.2.4 4.9-.7 7-2.2 4.3-6.7 7.1-11.6 7-8.8-.2-15.2-8.2-15.7-16.6-.6-8.8 4.6-17 12.4-21 17.4-8.9 33.5 9.1 38.2 24.5 4.2 13.8 1 29.4-13 36-7.7 3.6-19.2 7.4-27.6 4.7-7.7-2.5-14.4-10.6-18.2-17.5-2.8-5.1-4.3-10.9-1.5-16.3.1-.2 1-.9 1-1.7 0-1.4-.9-1.7-1.9-2.1-1.1-.5-1.2.1-2.5-1s-2.4-2.3-3.5-3.6c-2.9-3.5-5.3-7.6-6.8-11.9-1.2-3.4-3-9.2-.6-12.3 1-1.3 5.3-3.7 1.3-5.2-1.2-.4-2.8.3-4 .5-2.4.3-4.5.3-6.9-.2-3.9-.8-7.6-2.8-10.5-5.4-3.3-3-5.6-6.9-6.5-11.2-.6-3.1.5-5.2 2-7.8.6-1 1.6-2 1.6-3.2.3-3.8-3.2-2.3-4.5-.2-1.2 1.8-2.1 4-3.8 4.3-2.2.4-6.4-1.5-8.2-2.5-4.6-2.6-9.2-7.8-10.7-12.9-.8-2.7-.1-3.8.9-6.4.3-.7.8-1.3.6-2.2-1.7-8.1-11.9 16.6-33 2.7-2-1.3-6.6-4.5-7.3-7-.5-1.8.2-5 .2-6.9 0-2.2.1-4.4.2-6.6.5-8.8 1.6-18.2 5.8-26.1 9.2-17.5 30.2-11.2 38.1 3.8 3.7 7.1 4 15.3-1.6 21.5-2.2 2.5-5.2 4.9-8.5 5.7-5.3 1.3-8.7-3.1-9.6-7.8-.3-1.8-.8-5.5.1-7.1.5-.9 3.8-2.9 5.1-2.7.8.1 1.7 1.4 2.3 1.8.8.5 1.4 1.3 2.4 1 3.5-.9.4-4.2-1-5.3-8.7-6.8-14.3 2.1-13.4 10.8 1 10.1 9 16.5 18.6 11.5 9.7-5.1 14.3-15.9 11.1-26.3-3.1-10.5-12.6-20.3-23.6-21.9 11.1-1.7 20.5-11.5 23.6-21.9 3.1-10.5-1.5-21.3-11.1-26.3-9.6-5.1-17.6 1.4-18.6 11.5-.9 8.7 4.6 17.6 13.4 10.8 1.4-1.1 4.4-4.4 1-5.3-1-.3-1.6.5-2.4 1-.7.4-1.5 1.7-2.3 1.8-1.3.2-4.6-1.8-5.1-2.7-1-1.6-.5-5.3-.1-7.1.9-4.7 4.3-9.1 9.6-7.8 3.3.8 6.3 3.2 8.5 5.7 5.6 6.2 5.3 14.4 1.6 21.5-7.8 15-28.8 21.3-38.1 3.8-4.2-7.9-5.2-17.3-5.8-26.1-.1-2.2-.2-4.4-.2-6.6 0-1.9-.7-5.2-.2-6.9.7-2.6 5.2-5.7 7.3-7 21.1-13.9 31.3 10.9 33 2.7.2-.8-.4-1.5-.6-2.2-1-2.6-1.7-3.7-.9-6.4 1.5-5.2 6.1-10.3 10.7-12.9 1.8-1 6-2.9 8.2-2.5 1.7.3 2.7 2.5 3.8 4.3 1.3 2.1 4.7 3.6 4.5-.2-.1-1.2-1.1-2.2-1.6-3.2-1.5-2.6-2.6-4.8-2-7.8.9-4.3 3.3-8.3 6.5-11.2 2.9-2.7 6.6-4.6 10.5-5.4 2.4-.5 4.5-.5 6.9-.2 1.2.2 2.8.9 4 .5 4-1.5-.3-3.9-1.3-5.2-2.4-3-.5-8.9.6-12.3 1.5-4.3 3.9-8.4 6.8-11.9 1.1-1.3 2.2-2.5 3.5-3.6s1.4-.5 2.5-1c1-.4 1.9-.7 1.9-2.1 0-.8-.9-1.5-1-1.7-2.8-5.4-1.3-11.2 1.5-16.3 3.8-6.9 10.5-15 18.2-17.5 8.3-2.7 19.9 1 27.6 4.7 14 6.6 17.2 22.1 13 36-4.7 15.3-20.8 33.4-38.2 24.5-7.8-4-12.9-12.2-12.4-21 .6-8.3 6.9-16.3 15.7-16.6 4.9-.1 9.4 2.7 11.6 7 1.1 2.1 1.7 4.7.7 7-1.5 3.4-3.8 2.2-6.1 3.7-2 1.3-1.9 3.6.7 4 4.6.7 9.1-4.1 9.8-8.2 1-5.1-1.9-10.5-5.7-13.7-8.8-7.4-22.1-3.2-28 5.8-12.3 19 10.1 43.3 30.2 37.5 13.7-3.9 24.1-18.5 27-33.5 2.9 15 13.4 29.5 27 33.5 20.1 5.8 42.6-18.5 30.2-37.5-5.9-9.1-19.1-13.2-28-5.8-3.9 3.2-6.7 8.6-5.7 13.7.8 4.1 5.2 8.8 9.8 8.2 2.6-.4 2.6-2.7.7-4-2.3-1.5-4.5-.3-6.1-3.7-1-2.2-.4-4.9.7-7 2.2-4.3 6.7-7.2 11.6-7 8.8.2 15.2 8.2 15.7 16.6.6 8.8-4.6 17-12.4 21-17.4 9-33.5-9.1-38.2-24.5-4.2-13.8-1-29.4 13-36 7.7-3.6 19.2-7.4 27.6-4.7 7.7 2.5 14.4 10.6 18.2 17.5 2.8 5.1 4.3 10.9 1.5 16.3-.1.2-1 .9-1 1.7 0 1.4.9 1.7 1.9 2.1 1.1.5 1.2-.1 2.5 1s2.4 2.3 3.5 3.6c2.9 3.5 5.3 7.5 6.8 11.9 1.2 3.4 3 9.2.6 12.3-1 1.3-5.3 3.7-1.3 5.2 1.2.4 2.8-.3 4-.5 2.4-.3 4.5-.3 6.9.2 3.9.8 7.6 2.8 10.5 5.4 3.3 3 5.6 6.9 6.5 11.2.6 3.1-.5 5.3-2 7.8-.6 1-1.6 2-1.6 3.2-.3 3.8 3.2 2.3 4.5.2 1.2-1.8 2.1-4 3.8-4.3 2.2-.4 6.4 1.5 8.2 2.5 4.6 2.6 9.2 7.8 10.7 12.9.8 2.7.1 3.8-.9 6.4-.3.7-.8 1.3-.6 2.2 1.7 8.1 11.9-16.6 33-2.7 2 1.3 6.6 4.5 7.3 7 .5 1.8-.2 5-.2 6.9 0 2.2-.1 4.4-.2 6.6-.5 8.8-1.6 18.2-5.8 26.1-9.2 17.5-30.2 11.2-38-3.8-3.7-7.1-4-15.3 1.6-21.5 2.2-2.5 5.2-4.9 8.5-5.7 5.3-1.3 8.7 3.1 9.6 7.8.3 1.8.8 5.5-.1 7.1-.5.9-3.8 2.9-5.1 2.7-.8-.1-1.7-1.4-2.3-1.8-.8-.5-1.4-1.3-2.4-1-3.5.9-.4 4.2 1 5.3 8.7 6.8 14.3-2.1 13.4-10.8-1-10.1-9-16.5-18.6-11.5-9.7 5.1-14.3 15.9-11.1 26.3 3.1 10.5 12.6 20.3 23.6 21.9-11.1 1.7-20.5 11.4-23.6 21.9s1.5 21.3 11.1 26.3c9.6 5.1 17.6-1.4 18.6-11.5.9-8.7-4.6-17.6-13.4-10.8-1.4 1.1-4.4 4.4-1 5.3 1 .3 1.6-.5 2.4-1 .7-.4 1.5-1.7 2.3-1.8 1.3-.2 4.6 1.8 5.1 2.7 1 1.6.5 5.3.1 7.1-.9 4.7-4.3 9.1-9.6 7.8-3.3-.8-6.3-3.2-8.5-5.7-5.6-6.2-5.3-14.4-1.6-21.5 7.8-15 28.8-21.3 38-3.8 4.2 7.9 5.2 17.3 5.8 26.1.1 2.1.2 4.3.2 6.6z" fill="#695951"/><path d="m723 614.9c0-.1-.1-.1-.1-.1v-.1c-7.1-9.2-18.3-9.1-28.4-5.2-13.5-35.7-6.7-76.1-8.7-113.3-.8-15.8-2.8-33.7 2.5-49.1 1.2-3.6 2.9-7 5.4-9.9 1.2-1.3 5-3.1 5.3-5.1.7-4.8-5.3-.7-6.4.3-4.8 4.3-7.5 10.5-9.1 16.7-.8 3.2-1.4 6.6-1.8 9.9-.3 2.3-.5 4.5-.6 6.8-.2 2.5.4 5.7-.3 8.1-.1.5-.2.9-.3 1.2-.4.1-.8.1-1 .2-1.2.5-2.7.8-4 1.2-3.4 1.1-6.8 2.2-10.2 3.1-6.8 1.9-14.6 3.7-21.5 1.4-9.4-3.2-9.8-12.7-11.2-21.3-.1-.4-1.1-11.6-4.7-7.1-1.1 1.4.2 5.9.5 7.4.8 4.8 1.7 9.6 2.8 14.3 1 4.3.7 7-.9 11.1-1.3 3.5-3.1 6.9-5.1 10.1-4 6.3-9.2 12.4-16 15.8-3.1 1.6-6.5 2.5-10 2.3-5.8-.4-7.7-4.5-10.3-9-1.6-2.8-3.6-5.8-4.3-9-.4-1.7.9-4.7-.1-6.1-2.9-4.3-4.5 3.4-4.3 5.2 1 7.1 6.8 12.5 8.9 18.9 1.5 4.4 1.5 10.1 2.2 14.8 1.9 12.3 3.7 25.4 1 37.7-1.2 5.6-3.4 11-7.4 15.1-1.8 1.8-5.5 5.2-8.3 5.4-3 .2-7.6-3.9-9.5-5.8-1.4-1.4-3.2-3.1-3.7-5.1.1.5.3-3.6-.1-4.1-.6-.9-1.4-1.5-2.6-1.1-4 1.1-.8 8.2.6 10 3.3 4.5 8.6 6.5 12.2 10.5 6.3 7.1 8.1 18 8.1 27.1 0 4.3-.3 8.7-1.3 12.9-.7 2.9-2.8 11.4-6.1 12.7-2.8 1.1-9.4-7.3-10.7-9.4-.7-1.2-1.4-2.6-1.8-4-.5-2 .2-3.4 0-5.3-.1-.5.2-1.2-.2-1.7-2.7-3.3-4.3 1.6-4.4 3.8-.2 6.7 4.3 12.5 9 16.7 1.7 1.5 3.7 3.6 5.4 4.9 1.7 1.2 3.8 1.7 5.6 2.6 17.5 8.8 43.1 6.3 43.3 6.3 4.5-.2 8.9-.4 13.3-1 8-1.1 15.9-3.4 22.7-7.9 6.7-4.4 11.7-10.7 16.8-16.8 5.5-6.6 11.2-12.3 18.8-16.3 4.3 10.1 12.3 25.4 25.3 22.9 11.2-2.4 10.6-16.3 5.7-23.6zm-145.6 31.3c11.4-13.2 11-36.4 3.4-51.8 5.9 3 11.7 5.7 14.8 12.1 3.2 6.7 3.7 14.6 3 21.9-.7 7.5-2.9 14-7.8 19.8-1.3 1.5-3.4 2.2-5.3 1.5-2.7-.9-5.4-2.1-8.1-3.5zm104.3-146.3c.1 2.3.9 5.7.1 7.9-.6 1.7-2.5 3-4 4.2-4 3.3-8.4 6.4-13.3 8.1-2.2.7-4.4 1.2-6.7 1.1-9.4-.6-10.2-8-12.9-15.8 12.1 4.4 26.7 1.7 36.8-6.4zm-64.9 33.2c4.3-1.8 8.4-4.1 12.1-7 5.7-4.3 10.3-9.7 12.9-16.3 1.6 4.7 3.3 9.3 4.9 13.9-2.8 7.7-7.6 15.5-14.5 20.1-3.2 2.2-7 3.6-11 3.3-5.3-.4-9.7-7.4-12.9-11.8 3-.6 5.8-1.1 8.5-2.2zm65.2 8.8c-3.9 5.6-10.2 13.3-18 11.5-3-.7-2.7-1.5-3.5-4.2-.8-2.6-2.8-5.8-2.2-8.6 1.3-.3 2.7-.2 4-.3 3-.4 5.9-1.1 8.7-2.1 4.2-1.6 8-4 11.2-7-.1 3.4-.2 7-.2 10.7zm-57.5 59.4c-3.1 3-7.8 4-11.9 2.5 0 0 0 0-.1 0 .1-.1.2-.1.4-.2 0 0 .1-.1.1-.1s.1 0 .1-.1c13.3-11.5 7-33.4 5.9-49.1 3.7 3.6 7.7 7.3 8.4 12.4.8 5.4 1.9 10.8 2.2 16.3.7 11.1-2.1 15.4-5.1 18.3zm37.3-8.9c-2.7.6-4.6-2.3-6.4-4.2-.3-.3-.6-.6-.9-.9 5.8-1.4 9.6-6.4 11.9-11.9.8 1.6 1.5 3.2 2.2 4.8 1.3 2.9.9 4.8-.9 7.5-1.3 1.9-3.5 4.1-5.9 4.7zm.7-18.6c-2 5-5.8 10.2-11.8 9.4-2.6-2.8-5.2-5.7-7.7-8.6 7.6-1.8 13.7-6.5 17.5-13.3 1.8 4.1 3.8 8 2 12.5zm-11.6-38.7c.8 2.2 2.6 5.4 2.2 7.8-.9 5-7.1 9.3-11.2 11.4-13.8 7-15.8 2.1-19.8-2.9 12.5 0 21.8-11 26.9-21.7.6 1.8 1.3 3.6 1.9 5.4zm4.6 12.6c1.4 3.3 3.1 7.2 2 10.4-1.1 3.3-4.2 6.4-6.9 8.4-2.7 2.1-6.8 4.5-10.2 3.6-2.4-.7-3.4-2.4-5-4.3-.5-.6-3-2.8-4-4.1 8.7-.3 19.5-6.3 24.1-14zm-13.1 32.6c1.8 1.9 3.7 3.8 4.9 5.9 1.6 2.8 2.3 6.9 2.4 10 .1 3.4-.4 7-2.1 10-.8 1.5-2.2 3.5-3.9 4.2-1.1.5-5.6.6-7.9.1 8.5-7.4 8.9-19.7 6.6-30.2zm39.8-55.9c-4.2 4.3-7.3 7.8-13.3 9.9-2.7.9-5.6 1.5-8.5 1.7-2.8.2-5.3-1.5-6.4-4.1-1.2-2.8-2.4-6-2.4-8.3 10.7 5 22.3-2.5 30.6-9.7zm-70.9 21.4c2.8 3.2 3.3 5.5 3.6 9.6.4 7.1 1.7 14.2 2 21.3.2 4.8.2 9.7-1.1 14.3-.7 2.6-1.8 5-3.5 7-1.1 1.3-2.3 2.3-3.7 3.1-.3.2-.7.4-1 .5-3.7-1.4-7.3-3-10.9-4.5 18.3-11.2 14.5-36.6 11.2-55.6 1 1.5 2.2 3 3.4 4.3zm20.9 23c2.4 2.8 4.3 5.4 5.4 9.2 1.3 4.4 2 9.1 1.9 13.7-.1 4.7-1.1 9.6-4.1 13.3-1 1.2-3 3.5-4.6 3.9-1.1.3-5-.6-6.6-1.5 11.9-9.3 10.6-24.8 8-38.6zm31.5 32.6c4.6 3.5 9.5 6.5 14.9 8.4-6 .4-12 .8-18.1 1.1 2.5-2.6 3.5-5.9 3.2-9.5zm.2-5.3c4-1.8 6.8-4.7 8.7-8.6 3.9 7 8.4 13.6 13.5 19.7-8.5-1.2-15.7-5.6-22.2-11.1zm4.2-29.8c-1.6-.2-.9-.2-1.7-1.2-1.4-2-2.3-5.1-3.1-7.7 7.5 1.1 13.6-3.1 18.5-8.7.1.3 4.5 19.7-13.7 17.6zm-19 45c4.6-5.2 5.5-12.3 4.4-19.1 13.1 12.5 2.1 19.8-4.4 19.1zm19.8-40.7c4.6.4 10.1-1 13.5-4.3 0 0 .5 5.7.9 9 .2 1.6-.7 3.3-2.2 3.9-1.6.6-3.9.9-6.7-.5-2.7-1.3-3.3-3-5.5-8.1zm-71.3 76c2.8-4.4 4.3-9.7 5-14.8 1.4-9.7.6-20.5-4.2-29.2 2 .8 4.1 1.6 5.9 2.5 3.8 2 4.3 5.7 5.4 9.7 2.2 7.9 4.2 17.2 2.2 25.3-.7 3.2-2.2 6.1-3.5 9.1-.7 1.7-.7 3-2.6 3.8-1.3.6-4.5-.3-5.7-.4-2.2-.2-4.5-.5-6.6-.9 1.8-1.4 3.3-3.9 4.1-5.1zm18.1-3.2c1.2-4.2 1.3-8.6 1-12.9-.5-7.5-2-15.3-4.7-22.4 2.2.7 4.4 1.4 6.5 2.3 3.3 1.4 4.1 3.8 5.4 7.1 1.8 4.8 3 9.8 3.2 15s-.7 10.3-3 15c-.1.2-.2.4-.3.6-2.1 3.3-5.8 5.2-9.7 5.2-.8 0-1.6 0-2.4 0 1.3-3.4 3-6.5 4-9.9zm22.9-28.8c1.6.1 3.1.3 4.6 1.2 2.2 1.4 3.9 4.2 5.2 6.3 14.7 23.3-2.2 26.7-4.5 27.4 6.3-10.6 1.6-25.2-5.3-34.9zm36.5-31.1c3 .8 5.7.4 8.6-1 1 7 2.4 13.9 4.3 20.7-4.9-6.2-9.1-12.8-12.9-19.7zm5.7-104.2c.1 3.2.2 6.5.3 9.7.2 4.4-.5 5.8-4.1 8.3-4.9 3.3-10.8 5.1-16.6 5.7-4.6.5-13 .7-16.7-2.7-2.2-2-2.8-6.8-3.7-9.5-.9-2.8-1.6-5.6-2.4-8.4 12.7 8.4 29.8.7 43.2-3.1zm-46.4 7c2.3 6.6 5.9 14.8 4 21-2.1 6.5-6.8 11.8-12.1 15.8-4.7 3.5-10.8 7.1-16.8 8-4.7.7-5.5-1.8-7.9-5.4-1.8-2.7-3.4-5.5-5.1-8.2 17.9 3 32.1-15.7 37.9-31.2zm-33.6 46.1c2.2 3.5 2.6 6.2 3.1 10.2 1.1 7.7 2.3 15.4 2.4 23.2.1 7.2-.6 15.1-4.7 21.3-2 3-5.5 6.5-9.1 7.4-3.2.8-8.5-2.8-12.1-5.1 23.2-11.8 17.9-44.1 14.3-66.6 2.1 3.2 4.1 6.4 6.1 9.6zm30.5 102.1c.2-7.6-1.8-15.1-4.9-22 1.7.3 3.4.6 4.9 1.1 2.6 1 3.9 3.2 5.3 5.5 2.7 4.3 4.6 9.1 5.5 14.1.9 5.1.8 10.8-2.3 15.1s-8.7 4.4-13.8 4.6c3.8-4.9 5.2-12.9 5.3-18.4zm29.2 5.5c-.7.6-1.3 1.1-2 1.7 2.7-8.6-4.2-19.9-10.1-26.4 3-.1 5.8-.1 8.2 1.8 2.6 2.2 5 5.2 6.8 8.1 2.1 3.4 3.3 6.1 1.2 9.7-1.2 1.9-2.2 3.3-4.1 5.1zm9.5-10.3c-1.1-5.6-5.2-10.5-9.2-14.5 7.5-.3 15-.9 22.6-1.3.9 0 2.1 0 3.2-.1-6.5 4.3-11.5 10-16.6 15.9zm41 3.4c-7.2-4.2-11.5-12.1-14.9-19.6 5.8-2.2 12.8-3.8 18.6-.7 3.8 2 6.2 5.9 7.3 10 1.8 7.3-3.5 13.6-11 10.3z" fill="#a67e51"/><path d="m546.8 298.3c-1.3 16-1.8 32.1-1.5 48.2.3 16.8.6 33.4-.1 50.2-.6 14.7-.4 29.7 6 43.2 4.3 8.3 12.6 14.3 22.3 12.6 9.9-1.7 18.1-10.7 20.7-20.1s-1.7-19-10.5-23.3c-8.7-4.3-15.7 1.6-16.4 10.7-.6 7.8 4.5 15.7 12.2 9.4 1.2-1 3.8-4 .7-4.8-.9-.2-1.4.5-2.1 1-.6.4-1.3 1.6-2.1 1.7-1.2.2-4.1-1.5-4.6-2.3-.9-1.4-.5-4.8-.2-6.4.7-4.3 3.7-8.3 8.4-7.2 2.9.7 5.7 2.8 7.7 4.9 5.1 5.4 5.1 12.8 1.9 19.2-6.7 13.6-25.3 19.7-34 4.2-3.9-7-5.1-15.4-5.7-23.2-.2-2-.3-3.9-.4-5.9-.1-1.7-.7-4.6-.3-6.2.6-2.3 4.6-5.2 6.4-6.4 18.6-12.9 28.2 9.1 29.6 1.8.1-.7-.4-1.3-.6-1.9-.9-2.3-1.6-3.3-1-5.7 1.3-4.7 5.2-9.4 9.3-11.8 1.6-.9 5.3-2.8 7.3-2.4 1.6.3 2.5 2.1 3.5 3.8 1.2 1.8 4.3 3.1 4-.3-.1-1-1-1.9-1.5-2.8-1.4-2.3-2.4-4.2-1.9-7 .7-3.9 2.8-7.5 5.6-10.2 2.6-2.4 5.8-4.3 9.3-5.1 2.1-.5 4-.6 6.1-.3 1.1.1 2.5.8 3.6.3 3.6-1.4-.4-3.5-1.3-4.6-2.2-2.7-.7-7.9.3-11 1.3-3.9 3.3-7.6 5.9-10.8.9-1.2 1.9-2.3 3.1-3.3s1.3-.5 2.2-.9 1.7-.7 1.6-1.9c0-.7-.8-1.4-.9-1.5-2.6-4.8-1.4-10 1-14.6 3.3-6.2 9.1-13.6 15.9-16 7.4-2.6 17.8.5 24.8 3.6 12.7 5.6 15.8 19.5 12.4 31.9-3.8 13.8-17.9 30.4-33.7 22.7-7-3.4-11.8-10.6-11.5-18.6.3-7.5 5.8-14.8 13.7-15.2 4.4-.2 8.5 2.2 10.6 6 1 1.9 1.6 4.2.8 6.2-1.3 3.1-3.3 2-5.3 3.4-1.7 1.2-1.7 3.3.7 3.6 4.1.5 8-3.8 8.6-7.5.8-4.6-1.9-9.3-5.4-12.2-8.1-6.5-19.8-2.4-24.9 5.8-10.6 17.2 10 38.5 27.9 32.9 18.7-5.9 30.2-34 20.5-51.2-10.9-19.5-42.3-16.8-60.8-15.6-18.3 1.2-36.4 1.7-54.7 1.7-4.3 0-8.5-.1-12.8.2-4.2.2-8.5 1-12.8.8-8.4-.5-7.2 3.4-7.6 8.2zm70.5-6.1c-4 4.4-5.8 11.1-5.5 16.9-2.8-.8-6.3-1.5-8.6-3-4.3-2.8-2.9-6-.4-8.6 3.1-3.2 7.5-5 12-5.2.8 0 1.6-.1 2.5-.1zm31.5-2h1.9c-9.3 5.9-18 18-16.3 28.9-1.4-.8-2.8-1.5-4.2-2.3-2.6-1.5-3.3-2.6-3.2-5.7.1-4 1.8-8 4-11.3 2.4-3.5 5.4-5.9 9.2-7.6 2.6-1.3 5.6-2 8.6-2zm-99.3 24.4c.1-.1 4.5-7.2 6.4 1 .7 2.9 1.3 5.9 1.8 8.8-3.2-.7-6.3.4-8.7 2.6.1-4.1.3-8.2.5-12.4zm20.2-21.7h3.1c-.4.6-.8 1.2-1.1 2-1.3-.6-2.7-1.2-4-1.9.7-.1 1.4-.1 2-.1zm4.7 7.1c3 1.2 6 2.3 9 3.4-2.4 1.2-3.9 3.3-4.6 5.9-2.4-2.4-4.8-4.8-7.2-7.1 1-.6 1.9-1.3 2.8-2.2zm16.7 6.4c1.3.1 2.7.5 4 1-3.9 2.2-5.9 6.6-7 11-1.9-1.5-4.1-3.1-5.3-5-1.6-2.5-.1-5.9 2.6-6.9 1.7-.7 4-.3 5.7-.1zm-23.3-2.6c1.8 1.7 3.6 3.4 5.4 5.2.9.9 1.8 1.8 2.6 2.7.3.3 1.1.9 1.7 1.5-3 .1-5.6 1.4-7.3 3.8-1.6-3.6-3.3-7.2-5.2-10.7.9-.9 1.7-1.9 2.8-2.5zm-4.4 19.9c1-.8 2-.8 3-.5 1.8.5 3.2 1.8 4 3.5.4.8.8 1.7 1.2 2.5-4 .6-6.8 3.4-8.2 7.1-.3-1.5-.4-3.5-.6-4.1-1.4-7.1-.3-7.8.6-8.5zm4.2 28.2c-.2-.6-.3-1.2-.5-1.7-1.1-4.1-1.2-8.4-.3-12.5.1-.6.3-1.2.5-1.6.9-1.6 3.4-4 5.5-3.4 1.2.4 2 2.8 2.5 3.7 1.3 2.4 2.8 4.8 4.2 7.1-2.8 1-5.3 1.3-7.9 3.5-1.6 1.3-3 3-4 4.9zm16.5-32.1c-4.7.3-8.4 3.2-9.2 7.8-.3-.8-.6-1.6-.7-1.9-.9-1.9-2.1-4.1-1.1-6.2.4-.9 4-6.1 11 .3zm-3.4 18.4c-1.4-2.4-2.2-5.1-2.3-7.9-.2-6.9 7.5-10.5 15.3-2.1-2.7.3-5.1 1.4-7.2 3.2-2.7 2.3-3.8 5.1-4.9 8.2-.3-.4-.6-.9-.9-1.4zm-20.7-29.2c.5-.3 1-.6 1.5-.8 1.9 3.7 3.7 7.4 5.5 11.2-2.3-.4-4.5.1-6.3 1.7-.4-1.9-.7-3.8-1.2-5.7-.6-2.7-1.6-4.3.5-6.4zm9.2 48.9c1.3-4.9 4.4-9.1 9.4-10.6 3.2-1 4.1 1.2 5.6 3.6 1.3 2.1 2.7 4.2 4 6.4-7.4 1.6-12.3 8.6-14.6 15.6-1.5-4.9-3-9.9-4.4-15zm39.3-20.4c-2.9-2.4-6.7-5.3-7.4-8.7-.7-3.8.4-8.2 3.1-11.1 5-5.4 12.4-3 18.2-.4-8.3 3.4-12.4 11.5-13.9 20.2zm-11.3-10.8c-1.9-1.5-4.2-3.2-5.2-5-1.2-2.1.3-5.5 1.4-7.6 3.2-5.7 8.8-4.5 14-2.7-6.3 2.1-10.2 8.6-10.2 15.3zm-11.3 19.9c-2.2-3.9-1.2-7.3 1.7-10.9s7.6-5.4 11.6-2.2c2.5 2 4.8 4.5 7.1 6.8-3.9.5-7.3 2.4-10.1 5.3-2.9 3-3.7 6.1-4.8 9.6-2-2.8-3.8-5.7-5.5-8.6zm-34.8-.9c1.7-2.1 5.2-5.9 8.3-5.3 2.6.5 2.9 5.9 3.4 7.9.6 2.2 2.2 5.7 2.6 8.4-2.3-1.2-3.9-2.4-7.2-1.9-3.4.5-6.3 2.2-8.8 4.4-.4-4.6-1.3-9.8 1.7-13.5zm3.8-47.4c1.8 2 3.3 4.3 4.7 6.6-.9.5-1.7 1.1-2.4 1.7-1-3.2-2.1-6.3-3.5-9.4.4.4.9.8 1.2 1.1zm1.9 29.7c2.6.5 2.9 5.7 3.3 8.8-4.5-.2-8.2 2.5-11.2 5.8 0-.9 0-1.8 0-2.7 0-1.5-.3-3.5 0-5 0-.1 0-.1 0-.2 0 0 0 0 0-.1.4-3.6 4-7.4 7.9-6.6zm-7.1 49.6c.1-3.4.1-6.9 0-10.3-.1-5.6 2.9-7.5 6.4-7.8 5.5-.5 10.6 3.2 12.2 8.5.8 2.8 1.7 5.5 2.6 8.3-7.1-4-15.9-4-21.3 2.3.1-.4.1-.7.1-1zm30.3 12.2c-1.9-3.9-4.3-8.5-3.5-12.6.7-3.8 2.2-7.5 4.6-10.6 2.3-3 7.1-7.4 10.5-3.9 2.9 3 5.1 7.8 7.2 11.6-8.8 1.3-15.3 7.4-18.8 15.5zm43.4-76.1c-2.3-.8-5-1.5-6.8-2.8-2.8-2.1-1.3-18.9 11.7-19.4 2.1-.1 4.1-.3 6.2-.4-7.3 4.8-11.9 13.8-11.1 22.6zm-37.5-13.3c-1.8-.6-3.6-1.3-5.4-1.9-.8-.3-3.9-1-4.3-1.7-.6-1 .7-3.3 1.7-3.9s4.6-.1 5.9-.1h4.8c-2.1 2-3.1 4.7-2.7 7.6zm-17.7-1.3c-.5-.4-.9-.8-1.4-1.2-1-.8-1.9-1.5-2.9-2.3-1.1-.8-2.2-1.5-3.3-2.2h.1c.9.1 2.2 1.2 3 1.6 2.2 1.1 4.4 2.1 6.6 3.1-.6.6-1.3.9-2.1 1zm-5.3 3.7c-.9-1.5-2.5-4-4.3-6.3 2.1 1.4 4.1 3 6 4.5-.5.6-1 1.2-1.7 1.8zm-8.9 5.7c-.9 0-1.9-.3-2.8-.1-.5.1-.9.3-1.4.6.2-3.3.4-6.6.7-9.9 1.3 3 2.5 6.2 3.5 9.4zm-5 89.7c.1-2.6.2-5.2.2-7.9.1-2.8.8-5.6 2.2-8.1.1-.2.2-.3.3-.5 2.6-4 7.3-5.4 11.9-4.5 3.1.6 7.6 2.3 9.5 5.1 1.2 1.7 1.7 4.3 2.5 6.2.4.9 1.6 2.9 2.3 4.6-9.3-6-21.3-2.4-28.9 5.1zm51.3-28.5c-.9-1.4-1.8-2.9-2.7-4.3-1-1.6-3.2-4.1-3.6-6-.8-3.6 2.5-8.9 4.8-11.3 2.7-2.8 7.7-5.6 11.5-3.7 1.9.9 3.6 3.2 5.2 4.5 1.3 1.2 2.6 2.3 4 3.4-9.3 1.7-16.8 8.2-19.2 17.4zm17.2-24c-1.5-1.3-4.1-2.9-5-4.5-1.8-3.3 1.1-9.8 2.8-12.8 2.2-3.9 5.4-6.9 9.7-8.2 1.7-.5 1.8-.6 3.2-.3 1.9.4 4.2 2.1 6.1 3.3-7.3 6.6-12.3 16.4-11.8 26.4-1.8-1.2-3.4-2.5-5-3.9zm-15.8-53h.4c-3.6 2.7-5.3 7.1-4.4 11.6-1.8-.6-3.7-1.1-5.4-1.8-1.4-.6-2.3-.8-2.7-2.3-.3-1.4-.1-2.8.8-3.9 1.8-2.6 10.2-3.5 11.3-3.6z" fill="#695951"/></svg>